<svg xmlns="http://www.w3.org/2000/svg" width="160.102" height="96.426" viewBox="0 0 42.36 25.513"><g stroke-width=".265"><g aria-label="UNI" style="line-height:1.25;-inkscape-font-specification:verdana" font-size="16.933" font-family=".SF Compact Display" letter-spacing="-1.587" font-style="italic" font-weight="400"><path d="M4.064 5.01H2.766l-1.505 7.541q-.231 1.158.091 2.06.323.9 1.166 1.413.852.513 2.175.513 1.33 0 2.38-.513 1.05-.513 1.737-1.414.686-.901.918-2.059l1.505-7.54H9.935l-1.472 7.367q-.273 1.348-1.232 2.158-.96.802-2.299.802-1.34 0-1.976-.802-.636-.81-.364-2.158zM11.299 16.297L13.1 7.268h.025l4.06 9.029H18.5l2.258-11.286h-1.265L17.69 14.04h-.033l-4.051-9.03H12.29l-2.257 11.287zM21.006 16.297l2.257-11.286h-1.315l-2.257 11.286z" style="-inkscape-font-specification:'.SF Compact Display Italic'"/></g><g style="line-height:1.25;-inkscape-font-specification:verdana"><path d="M1.518 21.72l.914-1.302h1.6l-.028 1.302h.518l.012-4.232H4.05L1 21.72zm2.56-3.621l-.039 1.913H2.72l1.346-1.913z" style="-inkscape-font-specification:'.SF Compact Display'" font-weight="400" font-family=".SF Compact Display" aria-label="A" font-size="6.35"/></g><g aria-label="ddict" style="line-height:1.25;-inkscape-font-specification:verdana" font-size="6.35" font-family=".SF Compact Display" letter-spacing="-.397" font-weight="400"><path d="M6.372 18.385q-.413 0-.707.202-.292.198-.447.542-.155.344-.155.785v.297q0 .45.149.797.149.344.44.54.292.192.72.192.164 0 .307-.037.145-.037.266-.106.121-.068.22-.167.1-.102.168-.226h.012v.486h.462v-4.455H7.32v1.65h-.012q-.084-.143-.223-.255-.137-.115-.32-.18-.18-.065-.393-.065zm.043.434q.285 0 .49.14.205.136.313.387.112.251.112.586v.267q0 .353-.109.602-.108.244-.313.375-.201.13-.484.13-.254 0-.452-.121-.196-.124-.31-.372-.112-.248-.112-.617v-.264q0-.372.112-.62.111-.248.307-.369.198-.124.446-.124zM9.571 18.385q-.412 0-.706.202-.292.198-.447.542-.155.344-.155.785v.297q0 .45.149.797.149.344.44.54.292.192.72.192.164 0 .306-.037.146-.037.267-.106.121-.068.22-.167.1-.102.168-.226h.012v.486h.462v-4.455h-.487v1.65h-.012q-.084-.143-.223-.255-.137-.115-.32-.18-.18-.065-.394-.065zm.044.434q.285 0 .49.14.204.136.313.387.112.251.112.586v.267q0 .353-.109.602-.108.244-.313.375-.202.13-.484.13-.254 0-.453-.121-.195-.124-.31-.372-.111-.248-.111-.617v-.264q0-.372.111-.62.112-.248.307-.369.199-.124.447-.124zM11.624 21.69h.487v-3.252h-.487zm-.08-4.033q0 .133.092.229.097.096.23.096.136 0 .23-.096.095-.096.095-.23 0-.136-.096-.229-.093-.096-.23-.096-.132 0-.229.096-.093.093-.093.23zM12.591 20.215q0 .427.155.775.155.344.453.548.298.205.726.205.372 0 .626-.118.257-.12.41-.328.154-.211.21-.475h-.487q-.03.13-.124.239-.09.108-.242.174-.148.065-.356.065-.403 0-.645-.295-.239-.297-.239-.784v-.313q0-.506.23-.794.232-.289.65-.289.18 0 .323.075.146.074.242.198.1.121.137.26h.486q-.015-.238-.167-.461-.149-.223-.416-.366-.266-.146-.638-.146-.419 0-.72.192-.297.193-.455.534-.159.338-.159.775zM15.832 18.438h-.435v.415h.435v1.929q0 .316.065.527.068.208.26.31.195.102.577.102.077 0 .149-.009.074-.006.105-.012v-.4l-.062.006h-.068q-.31 0-.425-.1-.115-.099-.115-.4v-1.953h.645v-.415h-.645v-.819h-.486z" style="-inkscape-font-specification:'.SF Compact Display'"/></g><g style="line-height:1.25;-inkscape-font-specification:'.SF Compact Display'"><path d="M41.36 1h-3.17l-7.923 9.457h-.155L27.689 5.01h-3.274l3.492 7.65L17.78 24.514h3.135l7.958-9.457h.155l2.93 6.675h3.309l-4.138-8.845z" style="-inkscape-font-specification:'.SF Compact Display Italic'" font-style="italic" aria-label="X" font-weight="400" font-size="35.278" font-family=".SF Compact Display"/></g></g></svg>