<?xml version="1.0" encoding="UTF-8" standalone="no"?>
<svg
   xmlns:dc="http://purl.org/dc/elements/1.1/"
   xmlns:cc="http://creativecommons.org/ns#"
   xmlns:rdf="http://www.w3.org/1999/02/22-rdf-syntax-ns#"
   xmlns:svg="http://www.w3.org/2000/svg"
   xmlns="http://www.w3.org/2000/svg"
   xmlns:sodipodi="http://sodipodi.sourceforge.net/DTD/sodipodi-0.dtd"
   xmlns:inkscape="http://www.inkscape.org/namespaces/inkscape"
   width="42.360271mm"
   height="25.512793mm"
   viewBox="0 0 42.360272 25.512793"
   version="1.1"
   id="svg8"
   inkscape:version="1.0 (4035a4f, 2020-05-01)"
   sodipodi:docname="unixaddict-logo-p.svg">
  <defs
     id="defs2" />
  <sodipodi:namedview
     id="base"
     pagecolor="#ffffff"
     bordercolor="#666666"
     borderopacity="1.0"
     inkscape:pageopacity="0.0"
     inkscape:pageshadow="2"
     inkscape:zoom="5.605003"
     inkscape:cx="60.531737"
     inkscape:cy="48.213151"
     inkscape:document-units="mm"
     inkscape:current-layer="g132"
     inkscape:document-rotation="0"
     showgrid="false"
     showguides="true"
     inkscape:guide-bbox="true"
     inkscape:window-width="1764"
     inkscape:window-height="910"
     inkscape:window-x="155"
     inkscape:window-y="45"
     inkscape:window-maximized="0"
     fit-margin-top="1"
     fit-margin-left="1"
     fit-margin-right="1"
     fit-margin-bottom="1">
    <sodipodi:guide
       id="guide88"
       orientation="0,-1"
       position="10.136581,3.7818654" />
    <sodipodi:guide
       id="guide90"
       orientation="0,-1"
       position="25.765222,1.0358351" />
    <sodipodi:guide
       id="guide92"
       orientation="0,-1"
       position="6.285035,20.502278" />
  </sodipodi:namedview>
  <metadata
     id="metadata5">
    <rdf:RDF>
      <cc:Work
         rdf:about="">
        <dc:format>image/svg+xml</dc:format>
        <dc:type
           rdf:resource="http://purl.org/dc/dcmitype/StillImage" />
        <dc:title></dc:title>
      </cc:Work>
    </rdf:RDF>
  </metadata>
  <g
     transform="translate(-55.168279,-60.810167)"
     id="g132"
     inkscape:groupmode="layer"
     inkscape:label="unix path"
     style="display:inline">
    <g
       inkscape:export-ydpi="300"
       inkscape:export-xdpi="300"
       id="g227">
      <g
         aria-label="UNI"
         id="text118"
         style="font-size:16.9333px;line-height:1.25;font-family:verdana;-inkscape-font-specification:verdana;letter-spacing:-1.5875px;stroke-width:0.264583">
        <path
           d="m 59.232405,65.821029 h -1.298109 l -1.504815,7.54061 q -0.23151,1.15755 0.09095,2.058785 0.322461,0.901235 1.165818,1.413865 0.851626,0.512629 2.17454,0.512629 1.331183,0 2.381246,-0.512629 1.050063,-0.51263 1.736325,-1.413865 0.686261,-0.901235 0.917771,-2.058785 l 1.504815,-7.54061 h -1.29811 l -1.471741,7.366978 q -0.272851,1.347718 -1.231964,2.158003 -0.959113,0.802017 -2.298563,0.802017 -1.339451,0 -1.976103,-0.802017 -0.636653,-0.810285 -0.363802,-2.158003 z"
           style="font-style:italic;font-variant:normal;font-weight:normal;font-stretch:normal;font-size:16.9333px;font-family:'.SF Compact Display';-inkscape-font-specification:'.SF Compact Display Italic';stroke-width:0.264583"
           id="path192" />
        <path
           d="m 66.467089,77.10714 1.80247,-9.028889 h 0.02481 l 4.059692,9.028889 h 1.314646 l 2.257222,-11.286111 h -1.265036 l -1.802471,9.028888 h -0.03307 L 68.77392,65.821029 H 67.459274 L 65.202052,77.10714 Z"
           style="font-style:italic;font-variant:normal;font-weight:normal;font-stretch:normal;font-size:16.9333px;font-family:'.SF Compact Display';-inkscape-font-specification:'.SF Compact Display Italic';stroke-width:0.264583"
           id="path194" />
        <path
           d="M 76.173966,77.10714 78.431189,65.821029 H 77.116543 L 74.859321,77.10714 Z"
           style="font-style:italic;font-variant:normal;font-weight:normal;font-stretch:normal;font-size:16.9333px;font-family:'.SF Compact Display';-inkscape-font-specification:'.SF Compact Display Italic';stroke-width:0.264583"
           id="path196" />
      </g>
      <g
         aria-label="A"
         transform="skewX(-19.882944)"
         id="text126"
         style="font-size:6.35px;line-height:1.25;font-family:verdana;-inkscape-font-specification:verdana;stroke-width:0.264583">
        <path
           d="m 86.533948,82.530586 0.443384,-1.302246 h 1.599902 l 0.443384,1.302246 h 0.517797 l -1.519287,-4.232299 h -0.483691 l -1.519287,4.232299 z m 1.249536,-3.621484 0.654223,1.913061 h -1.320849 l 0.654224,-1.913061 z"
           style="font-style:normal;font-variant:normal;font-weight:normal;font-stretch:normal;font-size:6.35px;font-family:'.SF Compact Display';-inkscape-font-specification:'.SF Compact Display';stroke-width:0.264583"
           id="path210" />
      </g>
      <g
         aria-label="ddict"
         id="text130"
         style="font-size:6.35px;line-height:1.25;font-family:verdana;-inkscape-font-specification:verdana;letter-spacing:-0.396875px;stroke-width:0.264583">
        <path
           d="m 61.539938,79.195332 q -0.412378,0 -0.706933,0.201538 -0.291455,0.198438 -0.446485,0.542603 -0.155029,0.344165 -0.155029,0.784448 v 0.297656 q 0,0.449585 0.148828,0.796851 0.148828,0.344165 0.440283,0.539502 0.291455,0.192236 0.719336,0.192236 0.164331,0 0.306958,-0.03721 0.145728,-0.03721 0.266651,-0.10542 0.120923,-0.06821 0.220141,-0.167431 0.09922,-0.10232 0.167432,-0.226343 h 0.0124 v 0.486792 h 0.461988 v -4.455542 h -0.486792 v 1.649512 h -0.0124 q -0.08372,-0.142627 -0.223242,-0.254248 -0.136426,-0.114722 -0.31936,-0.179834 -0.179834,-0.06511 -0.393775,-0.06511 z m 0.04341,0.434082 q 0.285253,0 0.489892,0.139527 0.204639,0.136426 0.313159,0.387573 0.111621,0.251147 0.111621,0.586011 v 0.26665 q 0,0.353467 -0.10852,0.601514 -0.108521,0.244946 -0.313159,0.375171 -0.201538,0.130224 -0.483692,0.130224 -0.254248,0 -0.452685,-0.120923 -0.195337,-0.124023 -0.310059,-0.37207 -0.111621,-0.248047 -0.111621,-0.617016 v -0.26355 q 0,-0.372071 0.111621,-0.620117 0.111621,-0.248047 0.306958,-0.36897 0.198438,-0.124024 0.446485,-0.124024 z"
           style="font-style:normal;font-variant:normal;font-weight:normal;font-stretch:normal;font-size:6.35px;font-family:'.SF Compact Display';-inkscape-font-specification:'.SF Compact Display';stroke-width:0.264583"
           id="path199" />
        <path
           d="m 64.739743,79.195332 q -0.412378,0 -0.706933,0.201538 -0.291456,0.198438 -0.446485,0.542603 -0.155029,0.344165 -0.155029,0.784448 v 0.297656 q 0,0.449585 0.148828,0.796851 0.148828,0.344165 0.440283,0.539502 0.291455,0.192236 0.719336,0.192236 0.164331,0 0.306958,-0.03721 0.145728,-0.03721 0.266651,-0.10542 0.120922,-0.06821 0.220141,-0.167431 0.09922,-0.10232 0.167432,-0.226343 h 0.0124 v 0.486792 h 0.461987 v -4.455542 h -0.486792 v 1.649512 h -0.0124 q -0.08372,-0.142627 -0.223242,-0.254248 -0.136426,-0.114722 -0.31936,-0.179834 -0.179834,-0.06511 -0.393775,-0.06511 z m 0.04341,0.434082 q 0.285254,0 0.489893,0.139527 0.204639,0.136426 0.313159,0.387573 0.111621,0.251147 0.111621,0.586011 v 0.26665 q 0,0.353467 -0.10852,0.601514 -0.108521,0.244946 -0.31316,0.375171 -0.201538,0.130224 -0.483691,0.130224 -0.254248,0 -0.452685,-0.120923 -0.195337,-0.124023 -0.310059,-0.37207 -0.111621,-0.248047 -0.111621,-0.617016 v -0.26355 q 0,-0.372071 0.111621,-0.620117 0.111621,-0.248047 0.306958,-0.36897 0.198437,-0.124024 0.446484,-0.124024 z"
           style="font-style:normal;font-variant:normal;font-weight:normal;font-stretch:normal;font-size:6.35px;font-family:'.SF Compact Display';-inkscape-font-specification:'.SF Compact Display';stroke-width:0.264583"
           id="path201" />
        <path
           d="m 66.792331,82.500557 h 0.486792 v -3.252515 h -0.486792 z m -0.08062,-4.033862 q 0,0.133325 0.09302,0.229443 0.09612,0.09612 0.229444,0.09612 0.136426,0 0.229443,-0.09612 0.09612,-0.09612 0.09612,-0.229443 0,-0.136426 -0.09612,-0.229444 -0.09302,-0.09612 -0.229443,-0.09612 -0.133325,0 -0.229444,0.09612 -0.09302,0.09302 -0.09302,0.229444 z"
           style="font-style:normal;font-variant:normal;font-weight:normal;font-stretch:normal;font-size:6.35px;font-family:'.SF Compact Display';-inkscape-font-specification:'.SF Compact Display';stroke-width:0.264583"
           id="path203" />
        <path
           d="m 67.759714,81.024678 q 0,0.427881 0.155029,0.775147 0.155029,0.344165 0.452685,0.548803 0.297657,0.204639 0.725538,0.204639 0.37207,0 0.626318,-0.117822 0.257349,-0.120923 0.409277,-0.328662 0.15503,-0.21084 0.21084,-0.47439 h -0.486792 q -0.03101,0.130225 -0.124023,0.238745 -0.08992,0.108521 -0.241846,0.173633 -0.148828,0.06511 -0.356567,0.06511 -0.403077,0 -0.644922,-0.294556 -0.238745,-0.297656 -0.238745,-0.784448 V 80.71772 q 0,-0.505395 0.229443,-0.79375 0.232544,-0.288354 0.651123,-0.288354 0.179834,0 0.322461,0.07441 0.145727,0.07441 0.241846,0.198437 0.09922,0.120923 0.136425,0.260449 h 0.486792 q -0.0155,-0.238745 -0.167431,-0.461987 -0.148828,-0.223242 -0.415479,-0.365869 -0.26665,-0.145728 -0.63872,-0.145728 -0.41858,0 -0.719336,0.192237 -0.297657,0.192236 -0.455786,0.5333 -0.15813,0.337964 -0.15813,0.775147 z"
           style="font-style:normal;font-variant:normal;font-weight:normal;font-stretch:normal;font-size:6.35px;font-family:'.SF Compact Display';-inkscape-font-specification:'.SF Compact Display';stroke-width:0.264583"
           id="path205" />
        <path
           d="m 70.999826,79.248042 h -0.434082 v 0.415479 h 0.434082 v 1.928564 q 0,0.31626 0.06511,0.5271 0.06821,0.207739 0.260449,0.310058 0.195337,0.10232 0.576709,0.10232 0.07752,0 0.148828,-0.0093 0.07441,-0.0062 0.10542,-0.0124 v -0.399976 q -0.03101,0.0031 -0.06201,0.0062 -0.03101,0 -0.06821,0 -0.310058,0 -0.42478,-0.09922 -0.114722,-0.09922 -0.114722,-0.399976 v -1.953369 h 0.644922 v -0.415479 h -0.644922 v -0.818554 h -0.486792 z"
           style="font-style:normal;font-variant:normal;font-weight:normal;font-stretch:normal;font-size:6.35px;font-family:'.SF Compact Display';-inkscape-font-specification:'.SF Compact Display';stroke-width:0.264583"
           id="path207" />
      </g>
      <g
         aria-label="X"
         id="text101"
         style="font-style:normal;font-variant:normal;font-weight:normal;font-stretch:normal;font-size:35.2778px;line-height:1.25;font-family:'.SF Compact Display';-inkscape-font-specification:'.SF Compact Display';display:inline;stroke-width:0.264583"
         transform="translate(-0.19779155)">
        <path
           d="m 96.72634,61.810167 h -3.16949 l -7.923725,9.456794 h -0.155029 l -2.422899,-5.446279 h -3.274329 l 3.492365,7.651141 -10.128587,11.851137 h 3.135039 l 7.958176,-9.456794 h 0.155029 l 2.930145,6.674928 h 3.30878 L 86.4944,73.695755 Z"
           style="font-style:italic;font-variant:normal;font-weight:normal;font-stretch:normal;font-size:35.2778px;font-family:'.SF Compact Display';-inkscape-font-specification:'.SF Compact Display Italic';stroke-width:0.264583"
           id="path113"
           sodipodi:nodetypes="ccccccccccccccc" />
      </g>
    </g>
  </g>
</svg>
